<svg id="Capa_1" data-name="Capa 1" xmlns="http://www.w3.org/2000/svg" xmlns:xlink="http://www.w3.org/1999/xlink" viewBox="0 0 600 600"><defs><style>.cls-1{fill:url(#Degradado_sin_nombre_42);}.cls-13,.cls-14,.cls-2{fill:#2b275b;}.cls-3{opacity:0.1;}.cls-4{fill:url(#Degradado_sin_nombre_2);}.cls-10,.cls-11,.cls-12,.cls-5,.cls-6{fill-rule:evenodd;}.cls-5{fill:url(#Degradado_sin_nombre_2-2);}.cls-6,.cls-8{fill:#51418e;}.cls-7{fill:none;stroke:#2b275b;stroke-miterlimit:10;stroke-width:6px;}.cls-9{fill:url(#Degradado_sin_nombre_42-2);}.cls-10{fill:url(#Degradado_sin_nombre_42-3);}.cls-11{fill:url(#Degradado_sin_nombre_42-4);}.cls-12{fill:url(#Degradado_sin_nombre_42-5);}.cls-13{font-size:40px;}.cls-13,.cls-14{font-family:OpenSans-ExtraBold, Open Sans;font-weight:800;}.cls-14{font-size:30px;}.cls-15{fill:#fff;}</style><linearGradient id="Degradado_sin_nombre_42" x1="96.81" y1="117.29" x2="500.73" y2="493.95" gradientUnits="userSpaceOnUse"><stop offset="0.26" stop-color="#d06641"/><stop offset="0.48" stop-color="#a63e80"/><stop offset="0.68" stop-color="#51418e"/></linearGradient><linearGradient id="Degradado_sin_nombre_2" x1="230.14" y1="125.5" x2="474.71" y2="348.58" xlink:href="#Degradado_sin_nombre_42"/><linearGradient id="Degradado_sin_nombre_2-2" x1="171.45" y1="189.67" x2="421.81" y2="418.05" xlink:href="#Degradado_sin_nombre_42"/><linearGradient id="Degradado_sin_nombre_42-2" x1="184.89" y1="139.98" x2="287.01" y2="233.13" xlink:href="#Degradado_sin_nombre_42"/><linearGradient id="Degradado_sin_nombre_42-3" x1="242.76" y1="274.74" x2="243.76" y2="274.74" xlink:href="#Degradado_sin_nombre_42"/><linearGradient id="Degradado_sin_nombre_42-4" x1="243.76" y1="274.47" x2="243.89" y2="274.47" xlink:href="#Degradado_sin_nombre_42"/><linearGradient id="Degradado_sin_nombre_42-5" x1="159.24" y1="168.03" x2="263.76" y2="263.36" xlink:href="#Degradado_sin_nombre_42"/></defs><path class="cls-1" d="M506.88,124.47,300,5,93.12,124.47A50.13,50.13,0,0,0,68,167.88V393.31A170.53,170.53,0,0,0,182.81,554.42L300,595l117.2-40.56A170.55,170.55,0,0,0,532,393.31V167.88A50.13,50.13,0,0,0,506.88,124.47Zm-6.17,268.84c0,2,0,3.92-.13,5.9s-.19,3.77-.35,5.65c0,.52-.07,1-.13,1.52-.13,1.33-.26,2.7-.46,4a17.14,17.14,0,0,1-.26,1.85c-.13,1.23-.32,2.46-.51,3.7s-.46,2.63-.72,3.92a6.76,6.76,0,0,1-.16.85c-.2,1-.42,2.07-.68,3.08-.26,1.33-.59,2.66-.95,4-.42,1.75-.9,3.47-1.42,5.19-.07.26-.16.52-.23.78-.45,1.49-.94,3-1.46,4.48-.1.32-.23.65-.32,1-.49,1.4-1,2.76-1.56,4.12a9.33,9.33,0,0,1-.55,1.43c-.49,1.27-1,2.53-1.59,3.8a5.15,5.15,0,0,1-.46,1.1c-.48,1.14-1,2.27-1.56,3.41-.32.71-.64,1.39-1,2.11-.49,1-1,2.07-1.59,3.11s-1.17,2.21-1.82,3.31-1.33,2.4-2.08,3.6c-.91,1.53-1.81,3-2.82,4.48-1.95,3-4,5.88-6.17,8.7q-1.6,2-3.3,4.09a136.72,136.72,0,0,1-10,10.74c-.84.84-1.72,1.69-2.59,2.43q-3.36,3.17-6.95,6c-1.1.91-2.24,1.78-3.37,2.63a3.8,3.8,0,0,1-.55.42c-1.3,1-2.63,1.94-4,2.89a.18.18,0,0,0-.1.06c-1.46,1-3,2-4.45,2.95-1.16.75-2.33,1.46-3.53,2.18-.78.48-1.56.94-2.34,1.36-.16.1-.36.19-.52.29-1.36.78-2.76,1.56-4.18,2.27s-3,1.56-4.58,2.28c-1.36.68-2.76,1.29-4.15,1.91s-3,1.27-4.51,1.85c-1.85.75-3.73,1.46-5.65,2.11l-107,37-107-37c-1.91-.65-3.8-1.36-5.65-2.11-1.52-.58-3-1.2-4.51-1.85s-2.79-1.23-4.15-1.91c-1.56-.72-3.05-1.5-4.58-2.28s-3-1.59-4.44-2.43c-.88-.49-1.72-1-2.56-1.49-1.21-.72-2.37-1.43-3.54-2.18-1.33-.84-2.63-1.68-3.9-2.56-.48-.36-1-.68-1.46-1-1-.75-2.07-1.49-3.08-2.24-.22-.16-.42-.32-.61-.48-1.14-.85-2.28-1.72-3.38-2.63q-3.6-2.88-6.94-6c-.88-.78-1.76-1.59-2.6-2.43-2.4-2.31-4.7-4.71-6.91-7.17-1.1-1.24-2.18-2.5-3.21-3.77s-2.15-2.56-3.12-3.89l-.06-.07c-1.11-1.46-2.24-2.95-3.31-4.47a122.82,122.82,0,0,1-7-11c-.59-1-1.14-2-1.69-3-.29-.52-.59-1-.85-1.56-.55-1-1.07-2.07-1.59-3.11-.35-.72-.71-1.4-1-2.11-.56-1.14-1.07-2.27-1.56-3.41a7.35,7.35,0,0,1-.46-1.1c-.58-1.27-1.1-2.53-1.59-3.8a9.33,9.33,0,0,1-.55-1.43c-.55-1.36-1.07-2.72-1.56-4.12-.09-.32-.22-.65-.32-1-.52-1.49-1-3-1.46-4.48-.06-.26-.16-.52-.23-.78-.52-1.72-1-3.44-1.43-5.19-.35-1.33-.68-2.66-.94-4-.26-1-.48-2-.68-3.08-.06-.26-.09-.55-.16-.85-.26-1.29-.49-2.63-.71-3.92s-.39-2.47-.52-3.7a17.14,17.14,0,0,1-.26-1.85c-.2-1.33-.33-2.7-.46-4-.06-.48-.09-1-.13-1.52-.16-1.88-.29-3.76-.35-5.65s-.13-3.92-.13-5.9V167.88a18.91,18.91,0,0,1,9.47-16.35L300,41.11,491.27,151.53a18.89,18.89,0,0,1,9.44,16.35Z"/><path class="cls-2" d="M269.9,351.12C166.4,338.41,65,248.93,53.58,212.53V330.07C53.58,349,59,367,68.44,378,101,415.9,178.87,467.73,259.82,480.4c7.54,1.18,22.16,2.4,40.18,2.4s32.64-1.21,40.18-2.4C421.13,467.73,499,415.9,531.56,378c9.4-11,14.86-28.91,14.86-47.88V212.53C535,248.93,433.6,338.41,330.1,351.12,309.64,353,293.05,352.77,269.9,351.12Z"/><g class="cls-3"><path class="cls-4" d="M424.54,193.49a17,17,0,0,0-5.61-2.81,44.47,44.47,0,0,0-12.22-1.55H375.84a133.48,133.48,0,0,0-152.22,0l-.13.09h-13c-14.24.32-24.28-.32-32,.22l.29-.3a164.09,164.09,0,0,1,245.78,4.37Z"/><path class="cls-5" d="M463.81,300A164.13,164.13,0,0,1,324,462.3l-1.87.27-1.94.25-1,.12-.51.06-1.1.13-1.18.12-.55.05-1.39.13-2.16.18c-.69.06-1.38.1-2.08.15l-1,.06-.64,0-1,.05-1.31,0H306l-1.18,0-1.32,0-1.18,0h-.23l-1.24,0H297.6l-1.44,0-1,0-1,0-.78,0h-.24l-.81,0-1-.05c-84.26-4.29-151.69-72.62-155-157.48-.08-2.16-.13-4.33-.13-6.5A164.19,164.19,0,0,1,151.7,230h0l0,0,.08-.17h0c11.26-23,18.06-24.21,38.82-24.08h.09c3.69,0,7.82.09,12.49.08h.73q3.41,0,7.2-.08h85.6l52.29,0h51.75a43.82,43.82,0,0,1,10.36,1.34,16.78,16.78,0,0,1,5.8,2.85,26,26,0,0,1,4.75,4.17q7.81,10.71,2.63,26a37.41,37.41,0,0,1-5,9.73,51.31,51.31,0,0,1-22.64,18,25.72,25.72,0,0,1-9.31,2.3c-5.91.08-72.43.15-79.87.22-8.45.95-13,5.34-16.68,17.76q-7.35,24.68-28.55,96.5a12.88,12.88,0,0,0-.57,5.58,4.23,4.23,0,0,0,2.82,3.52A10,10,0,0,0,277,389a12.46,12.46,0,0,0,1-2.44c20-67.55,21.74-73.64,25.54-86.13.71-2.32,1.15-3.76,1.34-4.33a19.5,19.5,0,0,1,11.62-12.63q5.58-2.06,9.77.51c3.16,1.93,4.12,5.5,2.91,10.72-.13.53-.27,1.09-.45,1.66-8.51,28.36-10.54,35.52-26.4,89.33a44.23,44.23,0,0,1-12.74,20.61A48,48,0,0,1,285,410a49.9,49.9,0,0,1-14.61,7.41,32.62,32.62,0,0,1-13.9,1.15,24,24,0,0,1-11.86-4.84,23.71,23.71,0,0,1-3.07-2.95q-6.17-7.11-5.07-18,.38-3.71,5-19.2,12.48-41.7,25-84.27c9.47-32.09,19.93-43.21,50.19-43.19,6.24,0,70.64,0,73.46-.1a13.09,13.09,0,0,0,5-.93c4.24-2,6.67-7.44,6-10.89a4.37,4.37,0,0,0-.27-.89,4.82,4.82,0,0,0-2.66-2.62,13.05,13.05,0,0,0-5.23-.89H200.7c-13.46-.53-17.52,4.06-20.74,10a132.82,132.82,0,0,0-13.67,58.9,134.19,134.19,0,0,0,1.59,20.67c.28,1.8.59,3.6,1,5.37a132.42,132.42,0,0,0,6.36,22,0,0,0,0,0,0,0,133.81,133.81,0,0,0,68.26,73l.91.43a132.59,132.59,0,0,0,42.73,11.4h0q6.21.57,12.57.58c1.22,0,2.43,0,3.64,0,1.52,0,3-.1,4.56-.2A133.53,133.53,0,0,0,429.43,267.37a57,57,0,0,0,9.42-11.05,43.86,43.86,0,0,0,5.3-11.14q3.62-11.42,1.34-20.6c.84,1.63,1.66,3.27,2.44,4.93a162.52,162.52,0,0,1,11.54,32.87A164.25,164.25,0,0,1,463.81,300Z"/><path class="cls-6" d="M440.45,210.69a5.56,5.56,0,0,0-.95-1.22,3.36,3.36,0,0,0-1-.56,4.63,4.63,0,0,0,2.46-1.28,3,3,0,0,0,.78-2.08,3.16,3.16,0,0,0-1-2.47,4.88,4.88,0,0,0-3.3-.91H432v12h3v-4.72a1.94,1.94,0,0,1,.36,0,1.62,1.62,0,0,1,1.18.67,27.3,27.3,0,0,1,2.31,4.09h3.51Zm-2.32-3.86a3.08,3.08,0,0,1-1.82.42H435v-3h1.4a2.74,2.74,0,0,1,1.73.42,1.37,1.37,0,0,1,.51,1.08A1.34,1.34,0,0,1,438.13,206.83Z"/><path class="cls-6" d="M446.83,202.56a11.22,11.22,0,1,0,1.5,5.6A11.08,11.08,0,0,0,446.83,202.56Zm-3.31,12a9,9,0,1,1,2.65-6.39A8.74,8.74,0,0,1,443.52,214.55Z"/><path class="cls-6" d="M440.45,210.69a5.56,5.56,0,0,0-.95-1.22,3.36,3.36,0,0,0-1-.56,4.63,4.63,0,0,0,2.46-1.28,3,3,0,0,0,.78-2.08,3.16,3.16,0,0,0-1-2.47,4.88,4.88,0,0,0-3.3-.91H432v12h3v-4.72a1.94,1.94,0,0,1,.36,0,1.62,1.62,0,0,1,1.18.67,27.3,27.3,0,0,1,2.31,4.09h3.51Zm-2.32-3.86a3.08,3.08,0,0,1-1.82.42H435v-3h1.4a2.74,2.74,0,0,1,1.73.42,1.37,1.37,0,0,1,.51,1.08A1.34,1.34,0,0,1,438.13,206.83Z"/><path class="cls-6" d="M440.45,210.69a5.56,5.56,0,0,0-.95-1.22,3.36,3.36,0,0,0-1-.56,4.63,4.63,0,0,0,2.46-1.28,3,3,0,0,0,.78-2.08,3.16,3.16,0,0,0-1-2.47,4.88,4.88,0,0,0-3.3-.91H432v12h3v-4.72a1.94,1.94,0,0,1,.36,0,1.62,1.62,0,0,1,1.18.67,27.3,27.3,0,0,1,2.31,4.09h3.51Zm-2.32-3.86a3.08,3.08,0,0,1-1.82.42H435v-3h1.4a2.74,2.74,0,0,1,1.73.42,1.37,1.37,0,0,1,.51,1.08A1.34,1.34,0,0,1,438.13,206.83Z"/></g><path class="cls-7" d="M490.85,167.88V393.31a129.47,129.47,0,0,1-87.09,122.27L300,551.46,196.24,515.58a129.51,129.51,0,0,1-87.09-122.27V167.88a9.1,9.1,0,0,1,4.54-7.82L300,52.5,486.34,160.06A9.07,9.07,0,0,1,490.85,167.88Z"/><path class="cls-8" d="M442.19,230.87h-2.62a4.31,4.31,0,0,1-3.2-1.06c-1.19-1.21-1.11-3.22-1.07-4.68l0-.33v-16a.78.78,0,0,1,.77-.78h5a.76.76,0,0,0,.78-.76V195.84a.79.79,0,0,0-.78-.78h-5a.76.76,0,0,1-.77-.76V181.05a.78.78,0,0,0-.78-.77H421.05a.77.77,0,0,0-.77.77V194.3a.76.76,0,0,1-.77.76h-5a.79.79,0,0,0-.78.78v11.44a.78.78,0,0,0,.78.76h5a.78.78,0,0,1,.77.78V232c0,7.53,4.33,11.75,12.54,12.18h.26c1.34,0,7.5-.25,9.16-.35a.73.73,0,0,0,.72-.66v-.38c0-4,0-7.88,0-11.31a.76.76,0,0,0-.73-.62Z"/><path class="cls-8" d="M453.72,199.28a4.56,4.56,0,0,0-4-2.28,4.57,4.57,0,0,0,0,9.13,4.59,4.59,0,0,0,2.29-.61,4.53,4.53,0,0,0,1.67-1.67,4.58,4.58,0,0,0,0-4.57Zm-1.35,4.89a3.68,3.68,0,1,1,1.08-2.6A3.55,3.55,0,0,1,452.37,204.17Zm-1.64-2.07a1.17,1.17,0,0,0-.41-.23,1.86,1.86,0,0,0,1-.52,1.25,1.25,0,0,0,.32-.85,1.27,1.27,0,0,0-.42-1,2,2,0,0,0-1.34-.38H447.7V204h1.21v-1.92a.44.44,0,0,1,.15,0,.67.67,0,0,1,.48.27,11.3,11.3,0,0,1,.94,1.67h1.43l-.79-1.42A2.09,2.09,0,0,0,450.73,202.1Zm-.55-1.08a1.26,1.26,0,0,1-.74.17h-.53V200h.57a1.17,1.17,0,0,1,.71.17.56.56,0,0,1,.2.44A.54.54,0,0,1,450.18,201Z"/><path class="cls-8" d="M327.56,231.56l-10.83-7.94a.77.77,0,0,0-1.05.14,17.83,17.83,0,0,1-13.84,6.67,18.33,18.33,0,0,1,0-36.66A17.55,17.55,0,0,1,315.31,200a.8.8,0,0,0,1.07.1l10.86-7.93a.8.8,0,0,0,.15-1.12,33.08,33.08,0,0,0-10.47-8.77,31.71,31.71,0,0,0-15.08-3.76c-18.07,0-32.79,15.05-32.79,33.55s14.72,33.57,32.79,33.57a32.61,32.61,0,0,0,25.88-13,.79.79,0,0,0-.16-1.13Z"/><path class="cls-8" d="M379.25,212.5a24.69,24.69,0,0,0-2.24-5.25l-.47-.78c-.12-.2-.24-.38-.37-.56l-.27-.43c-.14-.21-.29-.41-.44-.61l0,0q-.29-.39-.57-.75l-.16-.2-.51-.61-.13-.16-.29.26.24-.31c-.27-.3-.56-.61-.88-.94L373,202c-.2-.22-.42-.42-.61-.61l-.08-.07c-.24-.24-.52-.47-.78-.7l-.21-.18c-.35-.3-.7-.56-1.05-.84l-.24-.18-.08,0c-.4-.31-.82-.6-1.26-.89l-.07,0c-.41-.27-1.12-.68-1.55-.93l-.37-.18-.19.32.16-.35-.07,0L366,197l-.11-.06c-.45-.21-.88-.41-1.31-.58l-.12,0c-.26-.11-.52-.22-.81-.32-.09,0-.18-.08-.29-.11-.3-.11-.62-.21-1-.32h-.06c-.32-.11-.68-.22-1.09-.32l-.32-.08c-.72-.17-1.45-.32-2.18-.44l-.31,0c-.76-.1-1.52-.18-2.3-.23h-.29l-1.17,0-1.19,0h-.27l-.08,0c-.29,0-.58,0-.86.06h-.1a1.7,1.7,0,0,1-.26,0l-1.12.14h-.08l-1.22.22-.19,0-.83.19-.09,0a1.05,1.05,0,0,0-.24.06c-.37.09-.73.19-1.1.3l-1.07.35-.24.09-.07,0c-.26.09-.52.2-.78.31l-.06,0-.25.09c-.33.15-.68.29-1,.46l-1,.5a1.34,1.34,0,0,1-.24.12l-.06,0-.7.41-.29.17a9.19,9.19,0,0,0-.93.6,25.41,25.41,0,0,0-7.6,7.85c-.2.31-.38.63-.57.95l-.21.41-.13.24c0,.08-.08.16-.11.23l-.11.2c0,.08-.07.15-.1.23-.17.33-.32.67-.48,1-.24.6-.48,1.22-.71,1.94a25,25,0,0,0-1.27,6.62c0,.43,0,.86,0,1.3s0,.87,0,1.29a24.36,24.36,0,0,0,.49,3.81c.09.41.18.82.29,1.22a15.38,15.38,0,0,0,.49,1.6,23.19,23.19,0,0,0,1.28,3.12,1.27,1.27,0,0,0,.12.23l.06.15c.14.26.27.52.43.78l.06.12c.15.27.3.53.47.79a25.55,25.55,0,0,0,7.6,7.86c.3.21.61.4.93.6l.29.16.7.41.06,0,.24.12,1,.48,0,0,1,.46.25.09.06,0,.78.3.06,0,.25.1c.36.13.71.25,1.07.35s.69.2,1.1.31a1.05,1.05,0,0,0,.24.06l.09,0,.83.19.33.06c.31.08.63.13.93.19l.21,0h0l1.12.13.26,0h.1c.28,0,.57,0,.86.06h.09a1.18,1.18,0,0,1,.26,0l1.19,0,1.19,0,.27,0c.78,0,1.54-.12,2.32-.23l.29,0c.73-.12,1.46-.28,2.21-.44l.29-.08c.41-.11.77-.21,1.11-.32l.06,0,1-.32.3-.12.81-.3.09-.05c.43-.17.86-.36,1.31-.58l.12-.06c.2-.1.42-.2.63-.32l.09,0,.35-.19.14-.07c.48-.28,1-.57,1.44-.87l.13-.08,1.22-.83.28-.23c.34-.25.69-.52,1-.83l-.24-.28.28.24.26-.21c.23-.2.48-.41.69-.63l.08-.06.61-.61.16-.17c.32-.32.6-.62.89-1l.15-.16.53-.64.14-.19a2,2,0,0,0,.29-.35l.17-.21c.27-.38.54-.78.85-1.23s.46-.7.65-1L377,232h0c.21-.38.58-1.14.87-1.73a.76.76,0,0,0-.55-1.1l-13-2.33a.78.78,0,0,0-.75.29,11.37,11.37,0,0,1-9.07,4.51,11.49,11.49,0,0,1-9.92-5.72.78.78,0,0,1,.66-1.17h33.84a.76.76,0,0,0,.76-.64,29.28,29.28,0,0,0,.41-4.49A24.9,24.9,0,0,0,379.25,212.5Zm-14.82,1.63H346.05a.76.76,0,0,1-.76-.91c.66-3.56,5.19-6.32,9.94-6.32,5.24,0,9.35,2.77,10,6.34A.77.77,0,0,1,364.43,214.13Z"/><path class="cls-8" d="M409.36,195.13c-3.18,0-7,.45-10.17,2.43a.37.37,0,0,1-.58-.32v-1.35a.76.76,0,0,0-.78-.76H384.34a.76.76,0,0,0-.78.76v46.77a.76.76,0,0,0,.78.76h14.41a.75.75,0,0,0,.76-.76V215.47a10.76,10.76,0,0,1,.79-5,4.58,4.58,0,0,1,3-2.41,20,20,0,0,1,5.51-.07.76.76,0,0,0,.84-.74l.46-11.3a.78.78,0,0,0-.78-.8Z"/><path class="cls-9" d="M266.06,168.37a7,7,0,0,0-2.34-1.17,18.54,18.54,0,0,0-5.1-.65H245.73a55.73,55.73,0,0,0-63.56,0l-.06,0h-5.43c-5.94.13-10.14-.13-13.36.09l.12-.12a68.53,68.53,0,0,1,102.62,1.82Z"/><path class="cls-10" d="M242.76,275l1-.48Z"/><path class="cls-11" d="M243.76,274.5l.13-.06Z"/><path class="cls-12" d="M274.13,245.55l-.36.66-.45.78-.27.47-.1.17-.23.38-.16.27-.24.38a2.53,2.53,0,0,1-.13.22c-.05.09-.11.18-.17.27s-.17.28-.26.41q-.35.56-.72,1.11A68.69,68.69,0,0,1,242.76,275l-.41.19-.82.36h0l-.41.18-.41.18-.29.12c-.46.2-.92.38-1.38.56l-1.26.49-.85.3-.34.12-1.16.4L235,278l-1.2.38-.27.08-.68.2-.55.15-.08,0-.57.16-1.23.31-.31.08-.66.15-.52.12h0l-1.34.28-.69.13-.74.14-.63.11h0l-.68.11-.69.11h0l-.78.11-.81.11-.41,0-.21,0-.46.05-.5.06-.23,0-.58.05-.9.08-.86.06-.44,0-.27,0-.44,0-.54,0h-.55l-.56,0h-4.67l-.43,0-.83-.05h0l-.42,0-.48,0-1.61-.14a68.43,68.43,0,0,1-61.36-65.48c0-.9-.05-1.81-.05-2.72a68.53,68.53,0,0,1,6.47-29.16h0l0-.07h0c4.11-8.38,6.8-9.83,13.18-10,.8,0,1.64,0,2.56,0H169l1.6,0H174l3,0h79.76c.4,0,.8.05,1.18.09l.3,0,.29,0,.29,0a13.84,13.84,0,0,1,1.68.35,6.72,6.72,0,0,1,2.43,1.19,10.59,10.59,0,0,1,2,1.73q3.27,4.49,1.1,10.87a15.72,15.72,0,0,1-2.07,4.06,21.4,21.4,0,0,1-9.46,7.52,11.89,11.89,0,0,1-3.26.92,4.4,4.4,0,0,1-.62,0c-2.47,0-30.21.07-33.35.09h0c-3.53.4-5.42,2.23-7,7.42q-3.06,10.31-11.91,40.28a5.19,5.19,0,0,0-.24,2.33,1.73,1.73,0,0,0,1.17,1.46,4.31,4.31,0,0,0,1.32.27h.58l.26,0,.17,0,.08,0,.2,0h0a4.21,4.21,0,0,0,2.54-2.09,5.19,5.19,0,0,0,.42-1c8.35-28.19,9.07-30.73,10.66-35.95.3-1,.48-1.57.56-1.81a8.15,8.15,0,0,1,4.85-5.27,7.35,7.35,0,0,1,1-.28l.25,0a4.18,4.18,0,0,1,1.54,0,2.61,2.61,0,0,1,.27.06h0a4,4,0,0,1,1,.45q2,1.2,1.21,4.47c0,.22-.11.46-.18.69-3.56,11.84-4.4,14.83-11,37.29a18.45,18.45,0,0,1-5.33,8.6,20.34,20.34,0,0,1-1.89,1.53,20.78,20.78,0,0,1-6.1,3.09,15.47,15.47,0,0,1-2.52.52l-.69.06H198c-.31,0-.62,0-.93,0a10.59,10.59,0,0,1-1.12-.1,10.08,10.08,0,0,1-5-2,10.6,10.6,0,0,1-1.28-1.23,9.49,9.49,0,0,1-2.11-7.5,63.72,63.72,0,0,1,2.09-8q5.21-17.4,10.46-35.17c3.45-11.72,7.23-16.74,16.57-17.81a37.17,37.17,0,0,1,4.38-.22c2.61,0,29.5,0,30.67,0l.64-.05a4.35,4.35,0,0,0,1.44-.34,4.64,4.64,0,0,0,2.49-4.55,1.58,1.58,0,0,0-.11-.37,2,2,0,0,0-1.11-1.09,4.79,4.79,0,0,0-1.4-.34c-.25,0-.51,0-.79,0h-81.8c-4.43.16-5.94,1.94-7.15,4.18a55.41,55.41,0,0,0-5.71,24.59,57,57,0,0,0,.66,8.62c.12.76.25,1.51.4,2.25a55.52,55.52,0,0,0,2.66,9.17h0a55.93,55.93,0,0,0,28.5,30.46l.38.17a55.38,55.38,0,0,0,17.85,4.76h0l.66.06c1.51.12,3,.19,4.59.19h1.52l.43,0h.27l.78,0,.42,0h0l.67,0h0l.54,0h.21l.6-.06.62-.06.21,0,.52-.07h0l.66-.08h0l.56-.08.1,0,.5-.07.25,0,.49-.08.09,0,.6-.1h.06l1.19-.24.34-.07.4-.08.11,0,.57-.13.65-.16.4-.1.38-.09.55-.15.53-.15.06,0,.33-.09.36-.11.51-.15.36-.12.34-.1.45-.15.25-.09.07,0,.36-.12.35-.13.21-.08.21-.07.5-.18.1,0,.44-.17.65-.26.23-.09.56-.23c.25-.11.5-.21.74-.33l.1,0,.42-.18.31-.14.31-.15.56-.26.09,0c.62-.3,1.24-.62,1.85-.94l.49-.26.25-.14.26-.14.15-.08c.93-.52,1.84-1.06,2.74-1.64a55.87,55.87,0,0,0,21.37-25.12A44.42,44.42,0,0,0,274.13,245.55Z"/><polygon class="cls-8" points="242.64 221.22 260.15 221.22 260.15 212.24 242.64 212.24 242.64 221.22 242.64 221.22"/><text class="cls-13" transform="translate(252.76 337.5)">TSFC</text><text class="cls-14" transform="translate(232.02 515.47)">Certified</text><path class="cls-15" d="M249.12,394.93a8.9,8.9,0,0,1-2.5,4.35,9.81,9.81,0,0,1-5.23,2.46,17.4,17.4,0,0,1-8-.82,35,35,0,0,1-4-1.46,18.82,18.82,0,0,1-3-1.68,25.53,25.53,0,0,1-2.7-2.16l2.54-7.07a26.09,26.09,0,0,0,4.67,3.67,20.61,20.61,0,0,0,4.7,2.2,6.76,6.76,0,0,0,2.25.36,2.76,2.76,0,0,0,1.48-.42,1.83,1.83,0,0,0,.73-1.05,1.79,1.79,0,0,0-.21-1.49,7.78,7.78,0,0,0-1.53-1.69c-.73-.64-1.72-1.47-2.9-2.49a30.1,30.1,0,0,1-2.66-2.61,10.81,10.81,0,0,1-1.76-2.67,7.39,7.39,0,0,1-.66-2.95,9.86,9.86,0,0,1,.65-3.47,8.44,8.44,0,0,1,3.1-4.26,9.28,9.28,0,0,1,4.86-1.59,17.66,17.66,0,0,1,6,.8,21.07,21.07,0,0,1,5,2.09,36.66,36.66,0,0,1,3.79,2.56c-1.6,2.29-2.41,3.44-4.07,5.7a33,33,0,0,0-3.49-2.43,14.27,14.27,0,0,0-3.36-1.52,5,5,0,0,0-1.8-.26,2.25,2.25,0,0,0-1.2.38,1.64,1.64,0,0,0-.62.88,1.77,1.77,0,0,0,.16,1.41,7.7,7.7,0,0,0,1.51,1.77c.75.69,1.79,1.61,3.14,2.71a25.17,25.17,0,0,1,3.34,3.18,7.94,7.94,0,0,1,1.73,7.57Z"/><path class="cls-15" d="M263.79,408a16.78,16.78,0,0,1-6.84-2.54,9.49,9.49,0,0,1-3.76-4.91,13.45,13.45,0,0,1-.07-7.22,13.84,13.84,0,0,1,3.24-6.66,10.72,10.72,0,0,1,5.36-3.11,16.86,16.86,0,0,1,6.71-.18,19.09,19.09,0,0,1,4.11,1.1,20.26,20.26,0,0,1,3.54,1.8c-1.28,2.34-1.93,3.5-3.26,5.82a30.72,30.72,0,0,0-2.73-1.44,10.15,10.15,0,0,0-2.68-.81,4.14,4.14,0,0,0-2.38.29,4.33,4.33,0,0,0-1.88,1.7A8.89,8.89,0,0,0,262,395a8.22,8.22,0,0,0,0,3.43,3.89,3.89,0,0,0,1.31,2.11,5.06,5.06,0,0,0,2.32,1,13.67,13.67,0,0,0,4,0,16.15,16.15,0,0,0,3.89-1.08l-.8,6.59a14.4,14.4,0,0,1-3.95,1.06A17.18,17.18,0,0,1,263.79,408Z"/><path class="cls-15" d="M294.83,385.74a12.25,12.25,0,0,1,1.43.13q.75.11,1.11.18c-.34,3.15-.52,4.72-.88,7.86a10.21,10.21,0,0,0-1.08-.2,18.43,18.43,0,0,0-1.87-.12,10.69,10.69,0,0,0-1.75.09,5.22,5.22,0,0,0-1.8.55,3.65,3.65,0,0,0-1.44,1.38,5.35,5.35,0,0,0-.69,2.58c-.27,4.75-.4,7.13-.67,11.88-3.74-.21-5.61-.36-9.34-.72.94-9.63,1.41-14.45,2.36-24.08,2.48.24,3.72.35,6.21.51.42,1.58.63,2.37,1.07,3.94l.41,0a9.24,9.24,0,0,1,1.84-2.07,8.6,8.6,0,0,1,2.41-1.45A6.77,6.77,0,0,1,294.83,385.74Z"/><path class="cls-15" d="M324.29,384.78c1.16,9.61,1.74,14.41,2.89,24-2.81.34-4.21.48-7,.73-.58-1.15-.86-1.73-1.42-2.9l-.55.05a6.38,6.38,0,0,1-1.94,2.13,9.22,9.22,0,0,1-2.76,1.29,13.46,13.46,0,0,1-3.21.52,11.45,11.45,0,0,1-4.83-.75A7.13,7.13,0,0,1,302,407a9.24,9.24,0,0,1-1.26-5.05l-.05-15.76c3.34,0,5-.05,8.36-.2.24,5.28.36,7.93.59,13.21a7.15,7.15,0,0,0,.89,3.54,2.56,2.56,0,0,0,2.47,1.09,3.72,3.72,0,0,0,2.6-1,4.56,4.56,0,0,0,1.12-2.61,19.25,19.25,0,0,0,.05-4.07c-.34-4.23-.5-6.34-.84-10.56C319.29,385.35,321,385.18,324.29,384.78Z"/><path class="cls-15" d="M358.92,377.07a9.43,9.43,0,0,1,6.77,0c1.86.86,3.33,2.73,4.36,5.66,2.08,5.94,3.12,8.91,5.21,14.85-3.58,1.26-5.38,1.85-9,2.95-1.54-5-2.3-7.55-3.84-12.58a6.92,6.92,0,0,0-1.85-3.45,2.66,2.66,0,0,0-2.5-.38,3,3,0,0,0-2.35,2.5,12.54,12.54,0,0,0,.52,5.06l2.93,10.88c-3.65,1-5.48,1.44-9.17,2.27-1.16-5.13-1.73-7.7-2.89-12.83a10.12,10.12,0,0,0-.94-2.69,3.07,3.07,0,0,0-1.29-1.33,2.52,2.52,0,0,0-1.69-.15,3.09,3.09,0,0,0-2.1,1.31,5,5,0,0,0-.66,2.71,20.6,20.6,0,0,0,.44,4.07c.8,4.16,1.2,6.24,2,10.4-3.69.7-5.54,1-9.25,1.57-1.44-9.57-2.15-14.35-3.58-23.92,2.5-.38,3.75-.58,6.24-1,.7,1.09,1.05,1.63,1.76,2.71l.24,0a7,7,0,0,1,1.32-2,8.35,8.35,0,0,1,2.14-1.68,11.53,11.53,0,0,1,3-1.12,10.22,10.22,0,0,1,4.53-.15,8,8,0,0,1,3.39,1.68l.26-.07a8.05,8.05,0,0,1,2.25-3.2A9.8,9.8,0,0,1,358.92,377.07Z"/><path class="cls-15" d="M149.67,409.94c-3.88-2.57-5.8-3.9-9.59-6.65L158.43,378a199,199,0,0,0,19.09,12.54l-3.44,5.83c-4.42-2.61-6.6-4-10.91-6.83-1.31,2-2,3-3.29,5,4.07,2.7,6.13,4,10.29,6.48-1.38,2.33-2.08,3.49-3.46,5.81-4.28-2.54-6.39-3.88-10.57-6.65C153.55,404.08,152.26,406,149.67,409.94Z"/><path class="cls-15" d="M200.44,423.3a12.32,12.32,0,0,1-3.08,4.54,10.18,10.18,0,0,1-4.53,2.36,14.46,14.46,0,0,1-5.74.1,25.08,25.08,0,0,1-6.64-2.23,23.09,23.09,0,0,1-5.55-3.72,15.25,15.25,0,0,1-3.49-4.6,10.63,10.63,0,0,1-1.07-5.1,11.6,11.6,0,0,1,1.6-5.27,12,12,0,0,1,5-5,12.18,12.18,0,0,1,6.71-1.17,22.87,22.87,0,0,1,7.94,2.41,21,21,0,0,1,6.41,4.61,12.9,12.9,0,0,1,3.24,6A11.55,11.55,0,0,1,200.44,423.3Zm-18.64-8.62a10.8,10.8,0,0,0-1.16,3.33,4.12,4.12,0,0,0,.42,2.63,4.82,4.82,0,0,0,2.21,1.91,4.58,4.58,0,0,0,2.83.55,4.13,4.13,0,0,0,2.27-1.31,13.35,13.35,0,0,0,2.95-6.3,4.09,4.09,0,0,0-.43-2.52,4.63,4.63,0,0,0-2.13-1.8,4,4,0,0,0-3.86-.16A8.24,8.24,0,0,0,181.8,414.68Z"/><path class="cls-15" d="M238.25,423.26l-6,23.43c-3.3-.85-4.95-1.3-8.23-2.25l-.5-3.29-.63-.19a7.36,7.36,0,0,1-3,1.15,12.72,12.72,0,0,1-3.6,0,19.85,19.85,0,0,1-3.83-.9,16.28,16.28,0,0,1-5.19-2.8,8.35,8.35,0,0,1-2.84-4.13,8,8,0,0,1,.42-5.26c2.27-5.88,3.41-8.82,5.69-14.69,3.87,1.49,5.81,2.2,9.73,3.53L216,430.41a6,6,0,0,0-.31,3.67,3.34,3.34,0,0,0,2.39,2.08,5.23,5.23,0,0,0,3.35.16,4.38,4.38,0,0,0,2.25-1.94,15.62,15.62,0,0,0,1.6-3.75c1.23-4.06,1.84-6.09,3.06-10.14C232.28,421.68,234.27,422.23,238.25,423.26Z"/><path class="cls-15" d="M263.49,427.93a13.08,13.08,0,0,1,7.15,3.09c1.78,1.62,2.52,4,2.19,7.05-.66,6.26-1,9.39-1.66,15.65-4.47-.48-6.7-.76-11.15-1.42.78-5.22,1.17-7.83,1.94-13.05a6.22,6.22,0,0,0-.33-3.73,3.23,3.23,0,0,0-2.59-1.65c-2-.32-3.38.08-4.28,1.23a12.17,12.17,0,0,0-2,5.26c-.76,4.17-1.14,6.25-1.91,10.42-4.43-.81-6.63-1.27-11-2.26l5.35-23.6c3,.69,4.54,1,7.58,1.6.3,1.36.46,2,.77,3.41l.39.07a9.47,9.47,0,0,1,2.59-1.53,11.21,11.21,0,0,1,3.19-.71A16.25,16.25,0,0,1,263.49,427.93Z"/><path class="cls-15" d="M288.83,455.45a10.8,10.8,0,0,1-8-3.64c-2-2.27-2.77-5.45-2.43-9.52s1.65-7.14,3.84-9.11a10.82,10.82,0,0,1,8-2.74,11.4,11.4,0,0,1,3.4.58,8.74,8.74,0,0,1,2.48,1.32,9.91,9.91,0,0,1,1.83,1.83h.21c-.11-.62-.22-1.46-.32-2.54s-.13-2.12-.13-3.15c0-2.58,0-3.88.06-6.47,4,0,6,0,9.92-.11q.54,16.61,1.07,33.21c-3.38.11-5.07.13-8.45.14-1-1.22-1.45-1.83-2.39-3.06h-.42a8.44,8.44,0,0,1-1.95,1.73,9.54,9.54,0,0,1-2.83,1.2A13.72,13.72,0,0,1,288.83,455.45Zm4.75-6.45a4.58,4.58,0,0,0,3.73-1.21,6.24,6.24,0,0,0,1.18-3.86v-.66a8,8,0,0,0-1-4.4c-.67-1-1.91-1.55-3.75-1.59a4,4,0,0,0-3.16,1.35,6.93,6.93,0,0,0-1.43,4.46,6.22,6.22,0,0,0,1.12,4.43A4.3,4.3,0,0,0,293.58,449Z"/><path class="cls-15" d="M329.39,428.88c3.72-.44,6.71-.12,9.05,1.05a7.58,7.58,0,0,1,4.23,5.88l2.65,15.65c-3.08.51-4.62.75-7.7,1.18-1-1.15-1.55-1.73-2.56-2.89l-.22,0a13.65,13.65,0,0,1-2.53,2.42,11,11,0,0,1-3.15,1.54,21.77,21.77,0,0,1-4.51.82,13.45,13.45,0,0,1-5.11-.44,7.42,7.42,0,0,1-3.66-2.35,7.15,7.15,0,0,1-1.52-4.3,6.24,6.24,0,0,1,3.12-6c2.21-1.41,5.43-2.36,9.71-3,2-.27,3.05-.41,5.07-.72l0-.34a2.61,2.61,0,0,0-1.29-2.16,4.83,4.83,0,0,0-2.75-.37,19.8,19.8,0,0,0-3.93.92,46,46,0,0,0-4.31,1.67c-1.39-2.1-2.06-3.16-3.4-5.28a30.6,30.6,0,0,1,5.68-2.07A53.08,53.08,0,0,1,329.39,428.88Zm3.51,13.49c-1,.16-1.48.24-2.46.38a9.77,9.77,0,0,0-4.07,1.25,2.26,2.26,0,0,0-1,2.15,2,2,0,0,0,1,1.73,3.94,3.94,0,0,0,2.35.35,5.79,5.79,0,0,0,3.28-1.34,2.89,2.89,0,0,0,1.09-2.66C333,443.49,333,443.12,332.9,442.37Z"/><path class="cls-15" d="M366.89,440.54a13.74,13.74,0,0,0,2.59-.93q1.14-.56,2.34-1.26l1.65,5.85a26.33,26.33,0,0,1-3.52,2,27,27,0,0,1-5,1.67,18.09,18.09,0,0,1-5.62.56,6.87,6.87,0,0,1-4.2-1.72,8.44,8.44,0,0,1-2.31-4.72l-2-9.77c-1.44.3-2.16.44-3.61.71l-.63-3.34c1.62-1.37,2.41-2.06,4-3.46.63-2.21.93-3.31,1.51-5.52,2.57-.57,3.86-.87,6.42-1.5l1.17,4.7c2.83-.7,4.25-1.07,7.07-1.86.67,2.41,1,3.62,1.69,6-2.9.8-4.35,1.19-7.26,1.91.91,3.65,1.36,5.48,2.27,9.14a2.06,2.06,0,0,0,1.19,1.52A3.55,3.55,0,0,0,366.89,440.54Z"/><path class="cls-15" d="M374.15,409.5a9.11,9.11,0,0,1,3.77-.48,3,3,0,0,1,2.49,2.28,2.88,2.88,0,0,1-.57,3.28,8.86,8.86,0,0,1-3.39,1.94,8.47,8.47,0,0,1-3.88.44,2.9,2.9,0,0,1-2.35-2.33,3,3,0,0,1,.61-3.29A8.72,8.72,0,0,1,374.15,409.5Zm7.89,7.61,8,22.83c-4.28,1.5-6.44,2.2-10.77,3.52l-7-23.14C376.17,419.12,378.13,418.48,382,417.11Z"/><path class="cls-15" d="M420.7,413.39a12.25,12.25,0,0,1,1.51,5.28,10.25,10.25,0,0,1-1.11,5,14.55,14.55,0,0,1-3.63,4.48,24.72,24.72,0,0,1-6,3.67,22.64,22.64,0,0,1-6.37,1.87,15,15,0,0,1-5.71-.28,10.7,10.7,0,0,1-4.57-2.46,11.73,11.73,0,0,1-3-4.62,11.48,11.48,0,0,1,2.66-12.89,22.36,22.36,0,0,1,6.89-4.54,20.94,20.94,0,0,1,7.63-2,13,13,0,0,1,6.74,1.35A11.51,11.51,0,0,1,420.7,413.39Zm-18.57,8.82a11,11,0,0,0,1.81,3,4.08,4.08,0,0,0,2.28,1.36,4.8,4.8,0,0,0,2.87-.47,4.61,4.61,0,0,0,2.22-1.82,4.1,4.1,0,0,0,.45-2.59,11.51,11.51,0,0,0-1.06-3.35,11.31,11.31,0,0,0-1.89-2.94,4,4,0,0,0-2.2-1.28,4.67,4.67,0,0,0-2.75.47,4,4,0,0,0-2.58,2.87A8.29,8.29,0,0,0,402.13,422.21Z"/><path class="cls-15" d="M436.55,389.54a14.24,14.24,0,0,1,7.66-2.68c2.47,0,4.64,1.18,6.46,3.7l9.25,12.73c-3.81,2.76-5.74,4.1-9.63,6.69L443,399a6.17,6.17,0,0,0-2.77-2.54,3.42,3.42,0,0,0-3.12.57c-1.73,1.11-2.57,2.38-2.49,3.85a11.66,11.66,0,0,0,2,5.28l5.53,9c-4,2.43-6,3.6-10,5.85-4.7-8.46-7.05-12.69-11.74-21.15,2.77-1.54,4.15-2.34,6.89-4,1.15.81,1.73,1.2,2.89,2l.35-.22a9.82,9.82,0,0,1,1-2.9,12,12,0,0,1,2-2.72A18.69,18.69,0,0,1,436.55,389.54Z"/></svg>