<svg id="Capa_1" data-name="Capa 1" xmlns="http://www.w3.org/2000/svg" xmlns:xlink="http://www.w3.org/1999/xlink" viewBox="0 0 600 600"><defs><style>.cls-1{fill:url(#Degradado_sin_nombre_42);}.cls-13,.cls-14,.cls-2{fill:#dc911b;}.cls-3{opacity:0.1;}.cls-4{fill:url(#Degradado_sin_nombre_2);}.cls-10,.cls-11,.cls-12,.cls-5,.cls-6{fill-rule:evenodd;}.cls-5{fill:url(#Degradado_sin_nombre_2-2);}.cls-6,.cls-8{fill:#51418e;}.cls-7{fill:none;stroke:#dc911b;stroke-miterlimit:10;stroke-width:6px;}.cls-9{fill:url(#Degradado_sin_nombre_42-2);}.cls-10{fill:url(#Degradado_sin_nombre_42-3);}.cls-11{fill:url(#Degradado_sin_nombre_42-4);}.cls-12{fill:url(#Degradado_sin_nombre_42-5);}.cls-13{font-size:40px;}.cls-13,.cls-14{font-family:OpenSans-ExtraBold, Open Sans;font-weight:800;}.cls-14{font-size:30px;}.cls-15{fill:#fff;}</style><linearGradient id="Degradado_sin_nombre_42" x1="96.81" y1="117.29" x2="500.73" y2="493.95" gradientUnits="userSpaceOnUse"><stop offset="0.26" stop-color="#d06641"/><stop offset="0.48" stop-color="#a63e80"/><stop offset="0.68" stop-color="#51418e"/></linearGradient><linearGradient id="Degradado_sin_nombre_2" x1="230.14" y1="125.5" x2="474.71" y2="348.58" xlink:href="#Degradado_sin_nombre_42"/><linearGradient id="Degradado_sin_nombre_2-2" x1="171.45" y1="189.67" x2="421.81" y2="418.05" xlink:href="#Degradado_sin_nombre_42"/><linearGradient id="Degradado_sin_nombre_42-2" x1="184.89" y1="139.98" x2="287.01" y2="233.13" xlink:href="#Degradado_sin_nombre_42"/><linearGradient id="Degradado_sin_nombre_42-3" x1="242.76" y1="274.74" x2="243.76" y2="274.74" xlink:href="#Degradado_sin_nombre_42"/><linearGradient id="Degradado_sin_nombre_42-4" x1="243.76" y1="274.47" x2="243.89" y2="274.47" xlink:href="#Degradado_sin_nombre_42"/><linearGradient id="Degradado_sin_nombre_42-5" x1="159.24" y1="168.03" x2="263.76" y2="263.36" xlink:href="#Degradado_sin_nombre_42"/></defs><path class="cls-1" d="M506.88,124.47,300,5,93.12,124.47A50.13,50.13,0,0,0,68,167.88V393.31A170.53,170.53,0,0,0,182.81,554.42L300,595l117.2-40.56A170.55,170.55,0,0,0,532,393.31V167.88A50.13,50.13,0,0,0,506.88,124.47Zm-6.17,268.84c0,2,0,3.92-.13,5.9s-.19,3.77-.35,5.65c0,.52-.07,1-.13,1.52-.13,1.33-.26,2.7-.46,4a17.14,17.14,0,0,1-.26,1.85c-.13,1.23-.32,2.46-.51,3.7s-.46,2.63-.72,3.92a6.76,6.76,0,0,1-.16.85c-.2,1-.42,2.07-.68,3.08-.26,1.33-.59,2.66-.95,4-.42,1.75-.9,3.47-1.42,5.19-.07.26-.16.52-.23.78-.45,1.49-.94,3-1.46,4.48-.1.32-.23.65-.32,1-.49,1.4-1,2.76-1.56,4.12a9.33,9.33,0,0,1-.55,1.43c-.49,1.27-1,2.53-1.59,3.8a5.15,5.15,0,0,1-.46,1.1c-.48,1.14-1,2.27-1.56,3.41-.32.71-.64,1.39-1,2.11-.49,1-1,2.07-1.59,3.11s-1.17,2.21-1.82,3.31-1.33,2.4-2.08,3.6c-.91,1.53-1.81,3-2.82,4.48-1.95,3-4,5.88-6.17,8.7q-1.6,2-3.3,4.09a136.72,136.72,0,0,1-10,10.74c-.84.84-1.72,1.69-2.59,2.43q-3.36,3.17-6.95,6c-1.1.91-2.24,1.78-3.37,2.63a3.8,3.8,0,0,1-.55.42c-1.3,1-2.63,1.94-4,2.89a.18.18,0,0,0-.1.06c-1.46,1-3,2-4.45,2.95-1.16.75-2.33,1.46-3.53,2.18-.78.48-1.56.94-2.34,1.36-.16.1-.36.19-.52.29-1.36.78-2.76,1.56-4.18,2.27s-3,1.56-4.58,2.28c-1.36.68-2.76,1.29-4.15,1.91s-3,1.27-4.51,1.85c-1.85.75-3.73,1.46-5.65,2.11l-107,37-107-37c-1.91-.65-3.8-1.36-5.65-2.11-1.52-.58-3-1.2-4.51-1.85s-2.79-1.23-4.15-1.91c-1.56-.72-3.05-1.5-4.58-2.28s-3-1.59-4.44-2.43c-.88-.49-1.72-1-2.56-1.49-1.21-.72-2.37-1.43-3.54-2.18-1.33-.84-2.63-1.68-3.9-2.56-.48-.36-1-.68-1.46-1-1-.75-2.07-1.49-3.08-2.24-.22-.16-.42-.32-.61-.48-1.14-.85-2.28-1.72-3.38-2.63q-3.6-2.88-6.94-6c-.88-.78-1.76-1.59-2.6-2.43-2.4-2.31-4.7-4.71-6.91-7.17-1.1-1.24-2.18-2.5-3.21-3.77s-2.15-2.56-3.12-3.89l-.06-.07c-1.11-1.46-2.24-2.95-3.31-4.47a122.82,122.82,0,0,1-7-11c-.59-1-1.14-2-1.69-3-.29-.52-.59-1-.85-1.56-.55-1-1.07-2.07-1.59-3.11-.35-.72-.71-1.4-1-2.11-.56-1.14-1.07-2.27-1.56-3.41a7.35,7.35,0,0,1-.46-1.1c-.58-1.27-1.1-2.53-1.59-3.8a9.33,9.33,0,0,1-.55-1.43c-.55-1.36-1.07-2.72-1.56-4.12-.09-.32-.22-.65-.32-1-.52-1.49-1-3-1.46-4.48-.06-.26-.16-.52-.23-.78-.52-1.72-1-3.44-1.43-5.19-.35-1.33-.68-2.66-.94-4-.26-1-.48-2-.68-3.08-.06-.26-.09-.55-.16-.85-.26-1.29-.49-2.63-.71-3.92s-.39-2.47-.52-3.7a17.14,17.14,0,0,1-.26-1.85c-.2-1.33-.33-2.7-.46-4-.06-.48-.09-1-.13-1.52-.16-1.88-.29-3.76-.35-5.65s-.13-3.92-.13-5.9V167.88a18.91,18.91,0,0,1,9.47-16.35L300,41.11,491.27,151.53a18.89,18.89,0,0,1,9.44,16.35Z"/><path class="cls-2" d="M269.9,351.12C166.4,338.41,65,248.93,53.58,212.53V330.07C53.58,349,59,367,68.44,378,101,415.9,178.87,467.73,259.82,480.4c7.54,1.18,22.16,2.4,40.18,2.4s32.64-1.21,40.18-2.4C421.13,467.73,499,415.9,531.56,378c9.4-11,14.86-28.91,14.86-47.88V212.53C535,248.93,433.6,338.41,330.1,351.12,309.64,353,293.05,352.77,269.9,351.12Z"/><g class="cls-3"><path class="cls-4" d="M424.54,193.49a17,17,0,0,0-5.61-2.81,44.47,44.47,0,0,0-12.22-1.55H375.84a133.48,133.48,0,0,0-152.22,0l-.13.09h-13c-14.24.32-24.28-.32-32,.22l.29-.3a164.09,164.09,0,0,1,245.78,4.37Z"/><path class="cls-5" d="M463.81,300A164.13,164.13,0,0,1,324,462.3l-1.87.27-1.94.25-1,.12-.51.06-1.1.13-1.18.12-.55.05-1.39.13-2.16.18c-.69.06-1.38.1-2.08.15l-1,.06-.64,0-1,.05-1.31,0H306l-1.18,0-1.32,0-1.18,0h-.23l-1.24,0H297.6l-1.44,0-1,0-1,0-.78,0h-.24l-.81,0-1-.05c-84.26-4.29-151.69-72.62-155-157.48-.08-2.16-.13-4.33-.13-6.5A164.19,164.19,0,0,1,151.7,230h0l0,0,.08-.17h0c11.26-23,18.06-24.21,38.82-24.08h.09c3.69,0,7.82.09,12.49.08h.73q3.41,0,7.2-.08h85.6l52.29,0h51.75a43.82,43.82,0,0,1,10.36,1.34,16.78,16.78,0,0,1,5.8,2.85,26,26,0,0,1,4.75,4.17q7.81,10.71,2.63,26a37.41,37.41,0,0,1-5,9.73,51.31,51.31,0,0,1-22.64,18,25.72,25.72,0,0,1-9.31,2.3c-5.91.08-72.43.15-79.87.22-8.45.95-13,5.34-16.68,17.76q-7.35,24.68-28.55,96.5a12.88,12.88,0,0,0-.57,5.58,4.23,4.23,0,0,0,2.82,3.52A10,10,0,0,0,277,389a12.46,12.46,0,0,0,1-2.44c20-67.55,21.74-73.64,25.54-86.13.71-2.32,1.15-3.76,1.34-4.33a19.5,19.5,0,0,1,11.62-12.63q5.58-2.06,9.77.51c3.16,1.93,4.12,5.5,2.91,10.72-.13.53-.27,1.09-.45,1.66-8.51,28.36-10.54,35.52-26.4,89.33a44.23,44.23,0,0,1-12.74,20.61A48,48,0,0,1,285,410a49.9,49.9,0,0,1-14.61,7.41,32.62,32.62,0,0,1-13.9,1.15,24,24,0,0,1-11.86-4.84,23.71,23.71,0,0,1-3.07-2.95q-6.17-7.11-5.07-18,.38-3.71,5-19.2,12.48-41.7,25-84.27c9.47-32.09,19.93-43.21,50.19-43.19,6.24,0,70.64,0,73.46-.1a13.09,13.09,0,0,0,5-.93c4.24-2,6.67-7.44,6-10.89a4.37,4.37,0,0,0-.27-.89,4.82,4.82,0,0,0-2.66-2.62,13.05,13.05,0,0,0-5.23-.89H200.7c-13.46-.53-17.52,4.06-20.74,10a132.82,132.82,0,0,0-13.67,58.9,134.19,134.19,0,0,0,1.59,20.67c.28,1.8.59,3.6,1,5.37a132.42,132.42,0,0,0,6.36,22,0,0,0,0,0,0,0,133.81,133.81,0,0,0,68.26,73l.91.43a132.59,132.59,0,0,0,42.73,11.4h0q6.21.57,12.57.58c1.22,0,2.43,0,3.64,0,1.52,0,3-.1,4.56-.2A133.53,133.53,0,0,0,429.43,267.37a57,57,0,0,0,9.42-11.05,43.86,43.86,0,0,0,5.3-11.14q3.62-11.42,1.34-20.6c.84,1.63,1.66,3.27,2.44,4.93a162.52,162.52,0,0,1,11.54,32.87A164.25,164.25,0,0,1,463.81,300Z"/><path class="cls-6" d="M440.45,210.69a5.56,5.56,0,0,0-.95-1.22,3.36,3.36,0,0,0-1-.56,4.63,4.63,0,0,0,2.46-1.28,3,3,0,0,0,.78-2.08,3.16,3.16,0,0,0-1-2.47,4.88,4.88,0,0,0-3.3-.91H432v12h3v-4.72a1.94,1.94,0,0,1,.36,0,1.62,1.62,0,0,1,1.18.67,27.3,27.3,0,0,1,2.31,4.09h3.51Zm-2.32-3.86a3.08,3.08,0,0,1-1.82.42H435v-3h1.4a2.74,2.74,0,0,1,1.73.42,1.37,1.37,0,0,1,.51,1.08A1.34,1.34,0,0,1,438.13,206.83Z"/><path class="cls-6" d="M446.83,202.56a11.22,11.22,0,1,0,1.5,5.6A11.08,11.08,0,0,0,446.83,202.56Zm-3.31,12a9,9,0,1,1,2.65-6.39A8.74,8.74,0,0,1,443.52,214.55Z"/><path class="cls-6" d="M440.45,210.69a5.56,5.56,0,0,0-.95-1.22,3.36,3.36,0,0,0-1-.56,4.63,4.63,0,0,0,2.46-1.28,3,3,0,0,0,.78-2.08,3.16,3.16,0,0,0-1-2.47,4.88,4.88,0,0,0-3.3-.91H432v12h3v-4.72a1.94,1.94,0,0,1,.36,0,1.62,1.62,0,0,1,1.18.67,27.3,27.3,0,0,1,2.31,4.09h3.51Zm-2.32-3.86a3.08,3.08,0,0,1-1.82.42H435v-3h1.4a2.74,2.74,0,0,1,1.73.42,1.37,1.37,0,0,1,.51,1.08A1.34,1.34,0,0,1,438.13,206.83Z"/><path class="cls-6" d="M440.45,210.69a5.56,5.56,0,0,0-.95-1.22,3.36,3.36,0,0,0-1-.56,4.63,4.63,0,0,0,2.46-1.28,3,3,0,0,0,.78-2.08,3.16,3.16,0,0,0-1-2.47,4.88,4.88,0,0,0-3.3-.91H432v12h3v-4.72a1.94,1.94,0,0,1,.36,0,1.62,1.62,0,0,1,1.18.67,27.3,27.3,0,0,1,2.31,4.09h3.51Zm-2.32-3.86a3.08,3.08,0,0,1-1.82.42H435v-3h1.4a2.74,2.74,0,0,1,1.73.42,1.37,1.37,0,0,1,.51,1.08A1.34,1.34,0,0,1,438.13,206.83Z"/></g><path class="cls-7" d="M490.85,167.88V393.31a129.47,129.47,0,0,1-87.09,122.27L300,551.46,196.24,515.58a129.51,129.51,0,0,1-87.09-122.27V167.88a9.1,9.1,0,0,1,4.54-7.82L300,52.5,486.34,160.06A9.07,9.07,0,0,1,490.85,167.88Z"/><path class="cls-8" d="M442.19,230.87h-2.62a4.31,4.31,0,0,1-3.2-1.06c-1.19-1.21-1.11-3.22-1.07-4.68l0-.33v-16a.78.78,0,0,1,.77-.78h5a.76.76,0,0,0,.78-.76V195.84a.79.79,0,0,0-.78-.78h-5a.76.76,0,0,1-.77-.76V181.05a.78.78,0,0,0-.78-.77H421.05a.77.77,0,0,0-.77.77V194.3a.76.76,0,0,1-.77.76h-5a.79.79,0,0,0-.78.78v11.44a.78.78,0,0,0,.78.76h5a.78.78,0,0,1,.77.78V232c0,7.53,4.33,11.75,12.54,12.18h.26c1.34,0,7.5-.25,9.16-.35a.73.73,0,0,0,.72-.66v-.38c0-4,0-7.88,0-11.31a.76.76,0,0,0-.73-.62Z"/><path class="cls-8" d="M453.72,199.28a4.56,4.56,0,0,0-4-2.28,4.57,4.57,0,0,0,0,9.13,4.59,4.59,0,0,0,2.29-.61,4.53,4.53,0,0,0,1.67-1.67,4.58,4.58,0,0,0,0-4.57Zm-1.35,4.89a3.68,3.68,0,1,1,1.08-2.6A3.55,3.55,0,0,1,452.37,204.17Zm-1.64-2.07a1.17,1.17,0,0,0-.41-.23,1.86,1.86,0,0,0,1-.52,1.25,1.25,0,0,0,.32-.85,1.27,1.27,0,0,0-.42-1,2,2,0,0,0-1.34-.38H447.7V204h1.21v-1.92a.44.44,0,0,1,.15,0,.67.67,0,0,1,.48.27,11.3,11.3,0,0,1,.94,1.67h1.43l-.79-1.42A2.09,2.09,0,0,0,450.73,202.1Zm-.55-1.08a1.26,1.26,0,0,1-.74.17h-.53V200h.57a1.17,1.17,0,0,1,.71.17.56.56,0,0,1,.2.44A.54.54,0,0,1,450.18,201Z"/><path class="cls-8" d="M327.56,231.56l-10.83-7.94a.77.77,0,0,0-1.05.14,17.83,17.83,0,0,1-13.84,6.67,18.33,18.33,0,0,1,0-36.66A17.55,17.55,0,0,1,315.31,200a.8.8,0,0,0,1.07.1l10.86-7.93a.8.8,0,0,0,.15-1.12,33.08,33.08,0,0,0-10.47-8.77,31.71,31.71,0,0,0-15.08-3.76c-18.07,0-32.79,15.05-32.79,33.55s14.72,33.57,32.79,33.57a32.61,32.61,0,0,0,25.88-13,.79.79,0,0,0-.16-1.13Z"/><path class="cls-8" d="M379.25,212.5a24.69,24.69,0,0,0-2.24-5.25l-.47-.78c-.12-.2-.24-.38-.37-.56l-.27-.43c-.14-.21-.29-.41-.44-.61l0,0q-.29-.39-.57-.75l-.16-.2-.51-.61-.13-.16-.29.26.24-.31c-.27-.3-.56-.61-.88-.94L373,202c-.2-.22-.42-.42-.61-.61l-.08-.07c-.24-.24-.52-.47-.78-.7l-.21-.18c-.35-.3-.7-.56-1.05-.84l-.24-.18-.08,0c-.4-.31-.82-.6-1.26-.89l-.07,0c-.41-.27-1.12-.68-1.55-.93l-.37-.18-.19.32.16-.35-.07,0L366,197l-.11-.06c-.45-.21-.88-.41-1.31-.58l-.12,0c-.26-.11-.52-.22-.81-.32-.09,0-.18-.08-.29-.11-.3-.11-.62-.21-1-.32h-.06c-.32-.11-.68-.22-1.09-.32l-.32-.08c-.72-.17-1.45-.32-2.18-.44l-.31,0c-.76-.1-1.52-.18-2.3-.23h-.29l-1.17,0-1.19,0h-.27l-.08,0c-.29,0-.58,0-.86.06h-.1a1.7,1.7,0,0,1-.26,0l-1.12.14h-.08l-1.22.22-.19,0-.83.19-.09,0a1.05,1.05,0,0,0-.24.06c-.37.09-.73.19-1.1.3l-1.07.35-.24.09-.07,0c-.26.09-.52.2-.78.31l-.06,0-.25.09c-.33.15-.68.29-1,.46l-1,.5a1.34,1.34,0,0,1-.24.12l-.06,0-.7.41-.29.17a9.19,9.19,0,0,0-.93.6,25.41,25.41,0,0,0-7.6,7.85c-.2.31-.38.63-.57.95l-.21.41-.13.24c0,.08-.08.16-.11.23l-.11.2c0,.08-.07.15-.1.23-.17.33-.32.67-.48,1-.24.6-.48,1.22-.71,1.94a25,25,0,0,0-1.27,6.62c0,.43,0,.86,0,1.3s0,.87,0,1.29a24.36,24.36,0,0,0,.49,3.81c.09.41.18.82.29,1.22a15.38,15.38,0,0,0,.49,1.6,23.19,23.19,0,0,0,1.28,3.12,1.27,1.27,0,0,0,.12.23l.06.15c.14.26.27.52.43.78l.06.12c.15.27.3.53.47.79a25.55,25.55,0,0,0,7.6,7.86c.3.21.61.4.93.6l.29.16.7.41.06,0,.24.12,1,.48,0,0,1,.46.25.09.06,0,.78.3.06,0,.25.1c.36.13.71.25,1.07.35s.69.2,1.1.31a1.05,1.05,0,0,0,.24.06l.09,0,.83.19.33.06c.31.08.63.13.93.19l.21,0h0l1.12.13.26,0h.1c.28,0,.57,0,.86.06h.09a1.18,1.18,0,0,1,.26,0l1.19,0,1.19,0,.27,0c.78,0,1.54-.12,2.32-.23l.29,0c.73-.12,1.46-.28,2.21-.44l.29-.08c.41-.11.77-.21,1.11-.32l.06,0,1-.32.3-.12.81-.3.09-.05c.43-.17.86-.36,1.31-.58l.12-.06c.2-.1.42-.2.63-.32l.09,0,.35-.19.14-.07c.48-.28,1-.57,1.44-.87l.13-.08,1.22-.83.28-.23c.34-.25.69-.52,1-.83l-.24-.28.28.24.26-.21c.23-.2.48-.41.69-.63l.08-.06.61-.61.16-.17c.32-.32.6-.62.89-1l.15-.16.53-.64.14-.19a2,2,0,0,0,.29-.35l.17-.21c.27-.38.54-.78.85-1.23s.46-.7.65-1L377,232h0c.21-.38.58-1.14.87-1.73a.76.76,0,0,0-.55-1.1l-13-2.33a.78.78,0,0,0-.75.29,11.37,11.37,0,0,1-9.07,4.51,11.49,11.49,0,0,1-9.92-5.72.78.78,0,0,1,.66-1.17h33.84a.76.76,0,0,0,.76-.64,29.28,29.28,0,0,0,.41-4.49A24.9,24.9,0,0,0,379.25,212.5Zm-14.82,1.63H346.05a.76.76,0,0,1-.76-.91c.66-3.56,5.19-6.32,9.94-6.32,5.24,0,9.35,2.77,10,6.34A.77.77,0,0,1,364.43,214.13Z"/><path class="cls-8" d="M409.36,195.13c-3.18,0-7,.45-10.17,2.43a.37.37,0,0,1-.58-.32v-1.35a.76.76,0,0,0-.78-.76H384.34a.76.76,0,0,0-.78.76v46.77a.76.76,0,0,0,.78.76h14.41a.75.75,0,0,0,.76-.76V215.47a10.76,10.76,0,0,1,.79-5,4.58,4.58,0,0,1,3-2.41,20,20,0,0,1,5.51-.07.76.76,0,0,0,.84-.74l.46-11.3a.78.78,0,0,0-.78-.8Z"/><path class="cls-9" d="M266.06,168.37a7,7,0,0,0-2.34-1.17,18.54,18.54,0,0,0-5.1-.65H245.73a55.73,55.73,0,0,0-63.56,0l-.06,0h-5.43c-5.94.13-10.14-.13-13.36.09l.12-.12a68.53,68.53,0,0,1,102.62,1.82Z"/><path class="cls-10" d="M242.76,275l1-.48Z"/><path class="cls-11" d="M243.76,274.5l.13-.06Z"/><path class="cls-12" d="M274.13,245.55l-.36.66-.45.78-.27.47-.1.17-.23.38-.16.27-.24.38a2.53,2.53,0,0,1-.13.22c-.05.09-.11.18-.17.27s-.17.28-.26.41q-.35.56-.72,1.11A68.69,68.69,0,0,1,242.76,275l-.41.19-.82.36h0l-.41.18-.41.18-.29.12c-.46.2-.92.38-1.38.56l-1.26.49-.85.3-.34.12-1.16.4L235,278l-1.2.38-.27.08-.68.2-.55.15-.08,0-.57.16-1.23.31-.31.08-.66.15-.52.12h0l-1.34.28-.69.13-.74.14-.63.11h0l-.68.11-.69.11h0l-.78.11-.81.11-.41,0-.21,0-.46.05-.5.06-.23,0-.58.05-.9.08-.86.06-.44,0-.27,0-.44,0-.54,0h-.55l-.56,0h-4.67l-.43,0-.83-.05h0l-.42,0-.48,0-1.61-.14a68.43,68.43,0,0,1-61.36-65.48c0-.9-.05-1.81-.05-2.72a68.53,68.53,0,0,1,6.47-29.16h0l0-.07h0c4.11-8.38,6.8-9.83,13.18-10,.8,0,1.64,0,2.56,0H169l1.6,0H174l3,0h79.76c.4,0,.8.05,1.18.09l.3,0,.29,0,.29,0a13.84,13.84,0,0,1,1.68.35,6.72,6.72,0,0,1,2.43,1.19,10.59,10.59,0,0,1,2,1.73q3.27,4.49,1.1,10.87a15.72,15.72,0,0,1-2.07,4.06,21.4,21.4,0,0,1-9.46,7.52,11.89,11.89,0,0,1-3.26.92,4.4,4.4,0,0,1-.62,0c-2.47,0-30.21.07-33.35.09h0c-3.53.4-5.42,2.23-7,7.42q-3.06,10.31-11.91,40.28a5.19,5.19,0,0,0-.24,2.33,1.73,1.73,0,0,0,1.17,1.46,4.31,4.31,0,0,0,1.32.27h.58l.26,0,.17,0,.08,0,.2,0h0a4.21,4.21,0,0,0,2.54-2.09,5.19,5.19,0,0,0,.42-1c8.35-28.19,9.07-30.73,10.66-35.95.3-1,.48-1.57.56-1.81a8.15,8.15,0,0,1,4.85-5.27,7.35,7.35,0,0,1,1-.28l.25,0a4.18,4.18,0,0,1,1.54,0,2.61,2.61,0,0,1,.27.06h0a4,4,0,0,1,1,.45q2,1.2,1.21,4.47c0,.22-.11.46-.18.69-3.56,11.84-4.4,14.83-11,37.29a18.45,18.45,0,0,1-5.33,8.6,20.34,20.34,0,0,1-1.89,1.53,20.78,20.78,0,0,1-6.1,3.09,15.47,15.47,0,0,1-2.52.52l-.69.06H198c-.31,0-.62,0-.93,0a10.59,10.59,0,0,1-1.12-.1,10.08,10.08,0,0,1-5-2,10.6,10.6,0,0,1-1.28-1.23,9.49,9.49,0,0,1-2.11-7.5,63.72,63.72,0,0,1,2.09-8q5.21-17.4,10.46-35.17c3.45-11.72,7.23-16.74,16.57-17.81a37.17,37.17,0,0,1,4.38-.22c2.61,0,29.5,0,30.67,0l.64-.05a4.35,4.35,0,0,0,1.44-.34,4.64,4.64,0,0,0,2.49-4.55,1.58,1.58,0,0,0-.11-.37,2,2,0,0,0-1.11-1.09,4.79,4.79,0,0,0-1.4-.34c-.25,0-.51,0-.79,0h-81.8c-4.43.16-5.94,1.94-7.15,4.18a55.41,55.41,0,0,0-5.71,24.59,57,57,0,0,0,.66,8.62c.12.76.25,1.51.4,2.25a55.52,55.52,0,0,0,2.66,9.17h0a55.93,55.93,0,0,0,28.5,30.46l.38.17a55.38,55.38,0,0,0,17.85,4.76h0l.66.06c1.51.12,3,.19,4.59.19h1.52l.43,0h.27l.78,0,.42,0h0l.67,0h0l.54,0h.21l.6-.06.62-.06.21,0,.52-.07h0l.66-.08h0l.56-.08.1,0,.5-.07.25,0,.49-.08.09,0,.6-.1h.06l1.19-.24.34-.07.4-.08.11,0,.57-.13.65-.16.4-.1.38-.09.55-.15.53-.15.06,0,.33-.09.36-.11.51-.15.36-.12.34-.1.45-.15.25-.09.07,0,.36-.12.35-.13.21-.08.21-.07.5-.18.1,0,.44-.17.65-.26.23-.09.56-.23c.25-.11.5-.21.74-.33l.1,0,.42-.18.31-.14.31-.15.56-.26.09,0c.62-.3,1.24-.62,1.85-.94l.49-.26.25-.14.26-.14.15-.08c.93-.52,1.84-1.06,2.74-1.64a55.87,55.87,0,0,0,21.37-25.12A44.42,44.42,0,0,0,274.13,245.55Z"/><polygon class="cls-8" points="242.64 221.22 260.15 221.22 260.15 212.24 242.64 212.24 242.64 221.22 242.64 221.22"/><text class="cls-13" transform="translate(244.18 337.5)">TSMC</text><text class="cls-14" transform="translate(232.02 515.47)">Certified</text><path class="cls-15" d="M247.28,392.75a9.08,9.08,0,0,1-2.65,4.38,10,10,0,0,1-5.37,2.42,17.83,17.83,0,0,1-8.09-1,35,35,0,0,1-4-1.57,18.38,18.38,0,0,1-3-1.76A23.42,23.42,0,0,1,221.4,393l2.81-7.13a26,26,0,0,0,4.64,3.82,20.5,20.5,0,0,0,4.72,2.32,7.21,7.21,0,0,0,2.29.41,2.87,2.87,0,0,0,1.51-.41,2,2,0,0,0,.78-1.05,1.85,1.85,0,0,0-.18-1.52,7.6,7.6,0,0,0-1.51-1.74c-.73-.67-1.7-1.53-2.87-2.59a27.32,27.32,0,0,1-2.62-2.7,10.63,10.63,0,0,1-1.72-2.73,7.66,7.66,0,0,1-.57-3,10.38,10.38,0,0,1,.77-3.5,8.8,8.8,0,0,1,3.28-4.27,9.53,9.53,0,0,1,5-1.54,17.75,17.75,0,0,1,6.07.9,21.62,21.62,0,0,1,5,2.19,36.42,36.42,0,0,1,3.75,2.65c-1.67,2.32-2.52,3.47-4.26,5.75a32,32,0,0,0-3.46-2.53,14.86,14.86,0,0,0-3.35-1.59,5.16,5.16,0,0,0-1.81-.29,2.32,2.32,0,0,0-1.22.37,1.62,1.62,0,0,0-.66.88,1.83,1.83,0,0,0,.12,1.44,7.46,7.46,0,0,0,1.48,1.81c.74.72,1.77,1.67,3.1,2.81a26.24,26.24,0,0,1,3.3,3.28,8.64,8.64,0,0,1,1.75,3.47A8.83,8.83,0,0,1,247.28,392.75Z"/><path class="cls-15" d="M261.92,406.2a16.87,16.87,0,0,1-6.91-2.68,9.56,9.56,0,0,1-3.72-5,13.58,13.58,0,0,1,.1-7.34,14.24,14.24,0,0,1,3.43-6.73,11,11,0,0,1,5.48-3.11,17.23,17.23,0,0,1,6.77-.1,19,19,0,0,1,4.13,1.16,20,20,0,0,1,3.53,1.87c-1.32,2.37-2,3.54-3.38,5.89q-1.46-.89-2.73-1.5a10.34,10.34,0,0,0-2.7-.84,4.08,4.08,0,0,0-2.41.26,4.48,4.48,0,0,0-1.94,1.71,9.2,9.2,0,0,0-1.22,3.27,8.29,8.29,0,0,0-.09,3.48,3.94,3.94,0,0,0,1.29,2.17,4.89,4.89,0,0,0,2.33,1,13.39,13.39,0,0,0,4.05.07,15.82,15.82,0,0,0,4-1.05l-.92,6.7a14.61,14.61,0,0,1-4,1A17.56,17.56,0,0,1,261.92,406.2Z"/><path class="cls-15" d="M293.64,383.87a12.55,12.55,0,0,1,1.43.14l1.12.19c-.37,3.2-.56,4.8-.95,8a7.84,7.84,0,0,0-1.09-.21c-.45-.06-1.07-.11-1.88-.14a12.32,12.32,0,0,0-1.78.08,5.13,5.13,0,0,0-1.81.55,3.77,3.77,0,0,0-1.48,1.39,5.71,5.71,0,0,0-.72,2.63l-.8,12.08c-3.8-.25-5.7-.41-9.49-.82,1.09-9.79,1.63-14.69,2.72-24.48,2.5.27,3.75.38,6.25.57.4,1.61.61,2.41,1,4l.42,0a9.57,9.57,0,0,1,1.88-2.1,9,9,0,0,1,2.44-1.45A6.73,6.73,0,0,1,293.64,383.87Z"/><path class="cls-15" d="M323.3,383l3,24.45c-2.85.34-4.28.49-7.14.73-.59-1.18-.88-1.77-1.45-2.95l-.55,0a6.52,6.52,0,0,1-2,2.17,9.47,9.47,0,0,1-2.8,1.3,14,14,0,0,1-3.26.52,11.62,11.62,0,0,1-4.91-.79,7.21,7.21,0,0,1-3.46-2.9,9.43,9.43,0,0,1-1.24-5.15c0-6.41,0-9.62,0-16,3.37,0,5.05,0,8.42-.16.23,5.38.34,8.07.56,13.44a7.35,7.35,0,0,0,.89,3.61,2.61,2.61,0,0,0,2.5,1.13,3.81,3.81,0,0,0,2.65-1,4.74,4.74,0,0,0,1.13-2.65,19.3,19.3,0,0,0,0-4.14c-.33-4.3-.5-6.45-.84-10.75C318.27,383.59,320,383.43,323.3,383Z"/><path class="cls-15" d="M358.14,375.18a9.5,9.5,0,0,1,6.85,0c1.91.86,3.43,2.75,4.53,5.72L375.1,396c-3.63,1.31-5.45,1.92-9.12,3.06l-4.1-12.77a7.13,7.13,0,0,0-1.94-3.49,2.72,2.72,0,0,0-2.54-.39,3,3,0,0,0-2.34,2.55,12.84,12.84,0,0,0,.6,5.14c1.25,4.43,1.88,6.64,3.13,11.06-3.71,1-5.57,1.49-9.31,2.34l-3.07-13.05a10.72,10.72,0,0,0-1-2.73,3.12,3.12,0,0,0-1.32-1.35,2.64,2.64,0,0,0-1.71-.16,3.1,3.1,0,0,0-2.11,1.34,5.15,5.15,0,0,0-.65,2.76,21.74,21.74,0,0,0,.48,4.14c.85,4.23,1.27,6.34,2.11,10.58-3.75.72-5.63,1-9.4,1.61l-3.75-24.36c2.52-.37,3.78-.58,6.29-1,.71,1.11,1.07,1.66,1.79,2.76l.24,0a7.15,7.15,0,0,1,1.31-2.07,8.28,8.28,0,0,1,2.15-1.71,11.21,11.21,0,0,1,3.06-1.14,10.08,10.08,0,0,1,4.56-.16,8.22,8.22,0,0,1,3.45,1.7l.26-.07a8.1,8.1,0,0,1,2.23-3.26A9.79,9.79,0,0,1,358.14,375.18Z"/><path class="cls-15" d="M212.39,440c-.3-9.81-.3-14.69,0-24.39l-.23-.09c-.15.58-.38,1.36-.67,2.33s-.63,2-1,3.15-.74,2.19-1.14,3.2l-5,12.88c-3.92-1.49-5.87-2.28-9.73-3.92Q201,418.61,207.42,404c5.11,2.17,7.69,3.18,12.88,5-.12,9.56,0,14.37.48,24l.22.07c6.1-7.54,9-11.38,14.56-19.21,5.29,1.5,8,2.17,13.32,3.36q-3.54,15.51-7.09,31c-4.2-.93-6.29-1.44-10.46-2.54,1.46-5.38,2.2-8.07,3.66-13.46.26-1,.57-2,.92-3.1s.68-2.14,1-3.11.6-1.73.81-2.29l-.24-.07c-5.49,8-8.38,12-14.43,19.71C218.77,442.18,216.63,441.5,212.39,440Z"/><path class="cls-15" d="M269.63,427.71c3.8.48,6.69,1.53,8.71,3.26a7.71,7.71,0,0,1,2.74,6.85l-1.25,16.1c-3.19-.24-4.78-.38-8-.71-.74-1.39-1.11-2.09-1.82-3.48l-.24,0a13.64,13.64,0,0,1-3.12,1.76,11.07,11.07,0,0,1-3.54.74,22.73,22.73,0,0,1-4.71-.3,14,14,0,0,1-5-1.71,7.57,7.57,0,0,1-3.07-3.24,7.15,7.15,0,0,1-.42-4.62,6.42,6.42,0,0,1,4.64-5.1c2.55-.84,6-1,10.41-.52,2.09.24,3.14.35,5.23.54l0-.34a2.66,2.66,0,0,0-.74-2.46,4.92,4.92,0,0,0-2.64-1,20.62,20.62,0,0,0-4.13-.07c-1.55.11-3.12.31-4.72.58-.84-2.42-1.25-3.63-2-6.05a31.52,31.52,0,0,1,6.17-.64A54.49,54.49,0,0,1,269.63,427.71Zm.11,14.19-2.54-.23a10,10,0,0,0-4.37.23,2.31,2.31,0,0,0-1.54,1.87,2.06,2.06,0,0,0,.6,2,4.16,4.16,0,0,0,2.26.93,6,6,0,0,0,3.6-.52,2.93,2.93,0,0,0,1.75-2.35Z"/><path class="cls-15" d="M312.12,446.83a6.51,6.51,0,0,1-1.2,4.21,8.81,8.81,0,0,1-4.39,3,24.44,24.44,0,0,1-8.17,1.1,54,54,0,0,1-6.38-.4,29,29,0,0,1-5.65-1.32c.14-2.71.21-4.07.36-6.79a29.76,29.76,0,0,0,6.19,1.77,32.36,32.36,0,0,0,5,.56,8.62,8.62,0,0,0,2.78-.31c.59-.21.88-.53.87-.95a1.09,1.09,0,0,0-.59-.92,10.87,10.87,0,0,0-2.08-.88l-4.17-1.4a21.49,21.49,0,0,1-4.37-2,7.06,7.06,0,0,1-2.51-2.5,6.35,6.35,0,0,1-.68-3.46,5.94,5.94,0,0,1,3.72-5.27,21,21,0,0,1,9.11-1.66,31.6,31.6,0,0,1,5.63.47,46.54,46.54,0,0,1,5.55,1.36c-1.05,2.25-1.58,3.36-2.68,5.59a44.44,44.44,0,0,0-4.7-1.21,20.65,20.65,0,0,0-3.75-.47,5.81,5.81,0,0,0-1.94.25c-.46.17-.69.43-.69.76a1,1,0,0,0,.47.81,7.51,7.51,0,0,0,1.83.81c.9.31,2.22.73,4,1.26a28.31,28.31,0,0,1,4.59,1.75,7.2,7.2,0,0,1,2.79,2.3A6.68,6.68,0,0,1,312.12,446.83Z"/><path class="cls-15" d="M334.32,446.15a14.57,14.57,0,0,0,2.74-.62c.81-.28,1.66-.6,2.53-1l1,6.13a27.3,27.3,0,0,1-3.81,1.55,28.78,28.78,0,0,1-5.3,1.06,18.6,18.6,0,0,1-5.78-.14,7,7,0,0,1-4.05-2.26,8.73,8.73,0,0,1-1.76-5.07c-.31-4.05-.47-6.07-.79-10.12-1.5.11-2.25.17-3.75.26l-.22-3.45c1.81-1.18,2.71-1.78,4.47-3,.91-2.15,1.35-3.22,2.21-5.38,2.67-.25,4-.39,6.66-.71l.61,4.9c2.95-.35,4.43-.55,7.37-1,.39,2.52.59,3.77,1,6.29-3,.46-4.54.66-7.57,1,.47,3.8.71,5.71,1.18,9.51a2.08,2.08,0,0,0,1,1.69A3.68,3.68,0,0,0,334.32,446.15Z"/><path class="cls-15" d="M355.39,423.23a23.52,23.52,0,0,1,7.75-.65,11.36,11.36,0,0,1,5.89,2.26,10.79,10.79,0,0,1,3.55,5.5l1.11,3.62c-7.67,2.28-11.54,3.26-19.33,4.93a4.1,4.1,0,0,0,2.56,2.69,8.91,8.91,0,0,0,5.41,0,27.92,27.92,0,0,0,5.35-1.84,29.13,29.13,0,0,0,4.7-2.77c.7,2.35,1.05,3.52,1.74,5.87a22.72,22.72,0,0,1-4.73,2.73,41.06,41.06,0,0,1-6.95,2.2,25.82,25.82,0,0,1-9.14.66,12.68,12.68,0,0,1-6.9-2.87,11,11,0,0,1-3.45-6.67,13,13,0,0,1,.63-7.51,11.73,11.73,0,0,1,4.42-5.15A22.41,22.41,0,0,1,355.39,423.23Zm1.73,5.54a5.26,5.26,0,0,0-2.88,1.63,4,4,0,0,0-.82,3.22c3.66-.79,5.49-1.22,9.13-2.14a4.14,4.14,0,0,0-1-1.78,3.85,3.85,0,0,0-1.84-1A5.56,5.56,0,0,0,357.12,428.77Z"/><path class="cls-15" d="M392.31,411.44a17.23,17.23,0,0,1,1.72-.61l1.36-.4c.95,3.09,1.41,4.64,2.33,7.75a13.41,13.41,0,0,0-1.34.36c-.54.16-1.27.44-2.21.82a19.94,19.94,0,0,0-2,1,7.66,7.66,0,0,0-1.83,1.4,4.17,4.17,0,0,0-1.08,2,4.58,4.58,0,0,0,.32,2.72c1.74,4.53,2.61,6.8,4.36,11.33-4.39,1.63-6.59,2.4-11,3.83-3.13-9.35-4.69-14-7.82-23.39,3-1,4.48-1.48,7.45-2.55,1.17,1.26,1.76,1.88,2.95,3.13l.49-.19a9.68,9.68,0,0,1,1.24-2.82,11.35,11.35,0,0,1,2.18-2.54A10.19,10.19,0,0,1,392.31,411.44Z"/></svg>